<svg viewBox="0 0 69 14" xmlns="http://www.w3.org/2000/svg" xmlns:xlink="http://www.w3.org/1999/xlink" width="69.000000" height="14.000000" fill="none" customFrame="#000000">
	<path id="ORDER NOW" d="M7.76953 6.63672L7.76953 7.04102C7.76953 7.68945 7.68164 8.27148 7.50586 8.78711C7.33008 9.30273 7.08203 9.74219 6.76172 10.1055C6.44141 10.4648 6.05859 10.7402 5.61328 10.9316C5.17188 11.123 4.68164 11.2188 4.14258 11.2188C3.60742 11.2188 3.11719 11.123 2.67188 10.9316C2.23047 10.7402 1.84766 10.4648 1.52344 10.1055C1.19922 9.74219 0.947266 9.30273 0.767578 8.78711C0.591797 8.27148 0.503906 7.68945 0.503906 7.04102L0.503906 6.63672C0.503906 5.98438 0.591797 5.40234 0.767578 4.89062C0.943359 4.375 1.19141 3.93555 1.51172 3.57227C1.83594 3.20898 2.21875 2.93164 2.66016 2.74023C3.10547 2.54883 3.5957 2.45312 4.13086 2.45312C4.66992 2.45312 5.16016 2.54883 5.60156 2.74023C6.04688 2.93164 6.42969 3.20898 6.75 3.57227C7.07422 3.93555 7.32422 4.375 7.5 4.89062C7.67969 5.40234 7.76953 5.98438 7.76953 6.63672ZM5.99414 7.04102L5.99414 6.625C5.99414 6.17188 5.95312 5.77344 5.87109 5.42969C5.78906 5.08594 5.66797 4.79688 5.50781 4.5625C5.34766 4.32812 5.15234 4.15234 4.92188 4.03516C4.69141 3.91406 4.42773 3.85352 4.13086 3.85352C3.83398 3.85352 3.57031 3.91406 3.33984 4.03516C3.11328 4.15234 2.91992 4.32812 2.75977 4.5625C2.60352 4.79688 2.48438 5.08594 2.40234 5.42969C2.32031 5.77344 2.2793 6.17188 2.2793 6.625L2.2793 7.04102C2.2793 7.49023 2.32031 7.88867 2.40234 8.23633C2.48438 8.58008 2.60547 8.87109 2.76562 9.10938C2.92578 9.34375 3.12109 9.52148 3.35156 9.64258C3.58203 9.76367 3.8457 9.82422 4.14258 9.82422C4.43945 9.82422 4.70312 9.76367 4.93359 9.64258C5.16406 9.52148 5.35742 9.34375 5.51367 9.10938C5.66992 8.87109 5.78906 8.58008 5.87109 8.23633C5.95312 7.88867 5.99414 7.49023 5.99414 7.04102ZM9.03516 2.57031L12.2168 2.57031C12.8691 2.57031 13.4297 2.66797 13.8984 2.86328C14.3711 3.05859 14.7344 3.34766 14.9883 3.73047C15.2422 4.11328 15.3691 4.58398 15.3691 5.14258C15.3691 5.59961 15.291 5.99219 15.1348 6.32031C14.9824 6.64453 14.7656 6.91602 14.4844 7.13477C14.207 7.34961 13.8809 7.52148 13.5059 7.65039L12.9492 7.94336L10.1836 7.94336L10.1719 6.57227L12.2285 6.57227C12.5371 6.57227 12.793 6.51758 12.9961 6.4082C13.1992 6.29883 13.3516 6.14648 13.4531 5.95117C13.5586 5.75586 13.6113 5.5293 13.6113 5.27148C13.6113 4.99805 13.5605 4.76172 13.459 4.5625C13.3574 4.36328 13.2031 4.21094 12.9961 4.10547C12.7891 4 12.5293 3.94727 12.2168 3.94727L10.793 3.94727L10.793 11.1016L9.03516 11.1016L9.03516 2.57031ZM13.8047 11.1016L11.8594 7.29883L13.7168 7.28711L15.6855 11.0195L15.6855 11.1016L13.8047 11.1016ZM19.3418 11.1016L17.4844 11.1016L17.4961 9.73047L19.3418 9.73047C19.8027 9.73047 20.1914 9.62695 20.5078 9.41992C20.8242 9.20898 21.0625 8.90234 21.2227 8.5C21.3867 8.09766 21.4688 7.61133 21.4688 7.04102L21.4688 6.625C21.4688 6.1875 21.4219 5.80273 21.3281 5.4707C21.2383 5.13867 21.1035 4.85938 20.9238 4.63281C20.7441 4.40625 20.5234 4.23633 20.2617 4.12305C20 4.00586 19.6992 3.94727 19.3594 3.94727L17.4492 3.94727L17.4492 2.57031L19.3594 2.57031C19.9297 2.57031 20.4512 2.66797 20.9238 2.86328C21.4004 3.05469 21.8125 3.33008 22.1602 3.68945C22.5078 4.04883 22.7754 4.47852 22.9629 4.97852C23.1543 5.47461 23.25 6.02734 23.25 6.63672L23.25 7.04102C23.25 7.64648 23.1543 8.19922 22.9629 8.69922C22.7754 9.19922 22.5078 9.62891 22.1602 9.98828C21.8164 10.3438 21.4043 10.6191 20.9238 10.8145C20.4473 11.0059 19.9199 11.1016 19.3418 11.1016ZM18.4805 2.57031L18.4805 11.1016L16.7227 11.1016L16.7227 2.57031L18.4805 2.57031ZM30.252 9.73047L30.252 11.1016L25.7109 11.1016L25.7109 9.73047L30.252 9.73047ZM26.2852 2.57031L26.2852 11.1016L24.5273 11.1016L24.5273 2.57031L26.2852 2.57031ZM29.6602 6.04492L29.6602 7.38086L25.7109 7.38086L25.7109 6.04492L29.6602 6.04492ZM30.2461 2.57031L30.2461 3.94727L25.7109 3.94727L25.7109 2.57031L30.2461 2.57031ZM31.2773 2.57031L34.459 2.57031C35.1113 2.57031 35.6719 2.66797 36.1406 2.86328C36.6133 3.05859 36.9766 3.34766 37.2305 3.73047C37.4844 4.11328 37.6113 4.58398 37.6113 5.14258C37.6113 5.59961 37.5332 5.99219 37.377 6.32031C37.2246 6.64453 37.0078 6.91602 36.7266 7.13477C36.4492 7.34961 36.123 7.52148 35.748 7.65039L35.1914 7.94336L32.4258 7.94336L32.4141 6.57227L34.4707 6.57227C34.7793 6.57227 35.0352 6.51758 35.2383 6.4082C35.4414 6.29883 35.5938 6.14648 35.6953 5.95117C35.8008 5.75586 35.8535 5.5293 35.8535 5.27148C35.8535 4.99805 35.8027 4.76172 35.7012 4.5625C35.5996 4.36328 35.4453 4.21094 35.2383 4.10547C35.0312 4 34.7715 3.94727 34.459 3.94727L33.0352 3.94727L33.0352 11.1016L31.2773 11.1016L31.2773 2.57031ZM36.0469 11.1016L34.1016 7.29883L35.959 7.28711L37.9277 11.0195L37.9277 11.1016L36.0469 11.1016ZM48.8965 2.57031L48.8965 11.1016L47.1387 11.1016L43.7109 5.38281L43.7109 11.1016L41.9531 11.1016L41.9531 2.57031L43.7109 2.57031L47.1445 8.29492L47.1445 2.57031L48.8965 2.57031ZM57.4336 6.63672L57.4336 7.04102C57.4336 7.68945 57.3457 8.27148 57.1699 8.78711C56.9941 9.30273 56.7461 9.74219 56.4258 10.1055C56.1055 10.4648 55.7227 10.7402 55.2773 10.9316C54.8359 11.123 54.3457 11.2188 53.8066 11.2188C53.2715 11.2188 52.7812 11.123 52.3359 10.9316C51.8945 10.7402 51.5117 10.4648 51.1875 10.1055C50.8633 9.74219 50.6113 9.30273 50.4316 8.78711C50.2559 8.27148 50.168 7.68945 50.168 7.04102L50.168 6.63672C50.168 5.98438 50.2559 5.40234 50.4316 4.89062C50.6074 4.375 50.8555 3.93555 51.1758 3.57227C51.5 3.20898 51.8828 2.93164 52.3242 2.74023C52.7695 2.54883 53.2598 2.45312 53.7949 2.45312C54.334 2.45312 54.8242 2.54883 55.2656 2.74023C55.7109 2.93164 56.0938 3.20898 56.4141 3.57227C56.7383 3.93555 56.9883 4.375 57.1641 4.89062C57.3438 5.40234 57.4336 5.98438 57.4336 6.63672ZM55.6582 7.04102L55.6582 6.625C55.6582 6.17188 55.6172 5.77344 55.5352 5.42969C55.4531 5.08594 55.332 4.79688 55.1719 4.5625C55.0117 4.32812 54.8164 4.15234 54.5859 4.03516C54.3555 3.91406 54.0918 3.85352 53.7949 3.85352C53.498 3.85352 53.2344 3.91406 53.0039 4.03516C52.7773 4.15234 52.584 4.32812 52.4238 4.5625C52.2676 4.79688 52.1484 5.08594 52.0664 5.42969C51.9844 5.77344 51.9434 6.17188 51.9434 6.625L51.9434 7.04102C51.9434 7.49023 51.9844 7.88867 52.0664 8.23633C52.1484 8.58008 52.2695 8.87109 52.4297 9.10938C52.5898 9.34375 52.7852 9.52148 53.0156 9.64258C53.2461 9.76367 53.5098 9.82422 53.8066 9.82422C54.1035 9.82422 54.3672 9.76367 54.5977 9.64258C54.8281 9.52148 55.0215 9.34375 55.1777 9.10938C55.334 8.87109 55.4531 8.58008 55.5352 8.23633C55.6172 7.88867 55.6582 7.49023 55.6582 7.04102ZM60.7559 9.74805L62.4551 2.57031L63.4043 2.57031L63.6211 3.76562L61.8105 11.1016L60.791 11.1016L60.7559 9.74805ZM59.8828 2.57031L61.2891 9.74805L61.1719 11.1016L60.0352 11.1016L58.1426 2.57031L59.8828 2.57031ZM65.1152 9.71875L66.5039 2.57031L68.2441 2.57031L66.3574 11.1016L65.2207 11.1016L65.1152 9.71875ZM63.9375 2.57031L65.6484 9.77734L65.6016 11.1016L64.582 11.1016L62.7598 3.75977L62.9941 2.57031L63.9375 2.57031Z" fill="rgb(255,180,0)" fill-rule="nonzero" />
</svg>
